HIERARCHY
ROOT Hips
{
	OFFSET 0.00000 0.00000 0.00000
	CHANNELS 6 Xposition Yposition Zposition Zrotation Yrotation Xrotation 
	JOINT LHipJoint
	{
		OFFSET 0 0 0
		CHANNELS 3 Zrotation Yrotation Xrotation
		JOINT LeftHip
		{
			OFFSET 1.37733 -1.58235 0.71371
			CHANNELS 3 Zrotation Yrotation Xrotation
			JOINT LeftKnee
			{
				OFFSET 2.33951 -6.42775 0.00000
				CHANNELS 3 Zrotation Yrotation Xrotation
				JOINT LeftAnkle
				{
					OFFSET 2.30523 -6.33358 0.00000
					CHANNELS 3 Zrotation Yrotation Xrotation
					JOINT LeftToe
					{
						OFFSET 0.05388 -0.14857 1.53863
						CHANNELS 3 Zrotation Yrotation Xrotation
						End Site
						{
							OFFSET 0.00000 -0.00000 0.79208
						}
					}
				}
			}
		}
	}
	JOINT RHipJoint
	{
		OFFSET 0 0 0
		CHANNELS 3 Zrotation Yrotation Xrotation
		JOINT RightHip
		{
			OFFSET -1.47839 -1.58235 0.71371
			CHANNELS 3 Zrotation Yrotation Xrotation
			JOINT RightKnee
			{
				OFFSET -2.26534 -6.22397 0.00000
				CHANNELS 3 Zrotation Yrotation Xrotation
				JOINT RightAnkle
				{
					OFFSET -2.27037 -6.23779 0.00000
					CHANNELS 3 Zrotation Yrotation Xrotation
					JOINT RightToe
					{
						OFFSET -0.09543 -0.26220 1.62615
						CHANNELS 3 Zrotation Yrotation Xrotation
						End Site
						{
							OFFSET -0.00000 -0.00000 0.83991
						}
					}
				}
			}
		}
	}
	JOINT lowerback
	{
		OFFSET 0 0 0
		CHANNELS 3 Zrotation Yrotation Xrotation
		JOINT Chest
		{
			OFFSET 0.00101 1.81877 -0.00412
			CHANNELS 3 Zrotation Yrotation Xrotation
			JOINT Chest2
			{
				OFFSET 0.00322 1.81934 -0.03962
				CHANNELS 3 Zrotation Yrotation Xrotation
				JOINT lowerneck
				{
					OFFSET 0 0 0
					CHANNELS 3 Zrotation Yrotation Xrotation
					JOINT Neck
					{
						OFFSET -0.13795 1.66192 0.22650
						CHANNELS 3 Zrotation Yrotation Xrotation
						JOINT Head
						{
							OFFSET 0.14844 1.65995 -0.39123
							CHANNELS 3 Zrotation Yrotation Xrotation
							End Site
							{
								OFFSET 0.04109 1.72502 -0.16783
							}
						}
					}
				}
				JOINT LeftCollar
				{
					OFFSET 0 0 0
					CHANNELS 3 Zrotation Yrotation Xrotation
					JOINT LeftShoulder
					{
						OFFSET 3.25446 1.41983 0.32106
CHANNELS 3 Zrotation Xrotation Yrotation
						JOINT LeftElbow
						{
OFFSET 0 -4.054440 -0.000000
CHANNELS 3 Zrotation Xrotation Yrotation
							JOINT LeftWrist
							{
OFFSET 0 -3.212050 0.000000
CHANNELS 3 Zrotation Xrotation Yrotation
								JOINT lhand
								{
									OFFSET 0 0 0
CHANNELS 3 Zrotation Xrotation Yrotation
									JOINT LFingers
									{
OFFSET 0 -0.707410 0.000000
CHANNELS 3 Zrotation Xrotation Yrotation
										End Site
										{
OFFSET 0 -0.570330 0.000000
										}
									}
								}
								JOINT LThumb
								{
OFFSET 0 0.000000 0.000000
CHANNELS 3 Zrotation Xrotation Yrotation
									End Site
									{
OFFSET 0 -0.579040 0.579040
									}
								}
							}
						}
					}
				}
				JOINT RightCollar
				{
					OFFSET 0 0 0
					CHANNELS 3 Zrotation Yrotation Xrotation
					JOINT RightShoulder
					{
						OFFSET -3.30007 1.25485 0.33947
CHANNELS 3 Zrotation Xrotation Yrotation
						JOINT RightElbow
						{
OFFSET 0 -3.740480 -0.000000
CHANNELS 3 Zrotation Xrotation Yrotation
							JOINT RightWrist
							{
OFFSET 0 -3.160300 0.000000
CHANNELS 3 Zrotation Xrotation Yrotation
								JOINT rhand
								{
									OFFSET 0 0 0
CHANNELS 3 Zrotation Xrotation Yrotation
									JOINT RFingers
									{
OFFSET 0 -0.717030 0.000000
CHANNELS 3 Zrotation Xrotation Yrotation
										End Site
										{
OFFSET 0 -0.578090 0.000000
										}
									}
								}
								JOINT RThumb
								{
OFFSET 0 0.000000 0.000000
CHANNELS 3 Zrotation Xrotation Yrotation
									End Site
									{
OFFSET 0 -0.586910 0.586910
									}
								}
							}
						}
					}
				}
			}
		}
	}
}
MOTION
Frames: 7
Frame Time: 0.008333333333333333
9.949834 14.645908 3.541958 -191.112364 88.336821 -195.671175 0.000000 0.000000 0.000000 -7.525151 1.670264 -21.656686 8.845834 16.707501 55.555346 0.710414 12.979570 16.415263 0.997325 -6.355271 -17.818799 0.000000 0.000000 0.000000 10.914164 -4.423102 -19.605843 -8.322019 -16.351093 53.714516 0.002280 10.112725 14.366656 -0.672218 5.227715 -14.562757 -0.086427 -0.516621 0.269451 0.225182 -0.679195 1.810777 0.270831 -0.337261 1.706641 -14.653718 -13.362530 -18.856611 10.007125 -17.136713 23.314808 3.052602 -7.679636 13.134848 0.000000 0.000000 0.000000 90.000000 0.000000 0.000000 0.000000 0.000000 0.000000 0.000000 0.000000 0.000000 0.000000 0.000000 0.000000 0.000000 0.000000 0.000000 0.000000 0.000000 0.000000 0.000000 0.000000 0.000000 -90.000000 0.000000 0.000000 0.000000 0.000000 0.000000 0.000000 0.000000 0.000000 0.000000 0.000000 0.000000 0.000000 0.000000 0.000000 0.000000 0.000000 0.000000
9.948726 14.646244 3.543341 -190.050938 88.337051 -194.642628 0.000000 0.000000 0.000000 -7.482613 1.687237 -21.629036 8.842105 16.705049 55.542336 0.701311 13.037868 16.356720 1.030564 -6.456530 -18.115156 0.000000 0.000000 0.000000 10.952554 -4.452164 -19.553123 -8.304853 -16.338973 53.653514 -0.000022 10.073234 14.348689 -0.698060 5.324706 -14.840757 -0.066605 -0.526063 0.286027 0.235314 -0.691625 1.840326 0.269926 -0.343071 1.727619 -14.688008 -13.376843 -18.803626 10.065055 -17.161922 23.212687 3.076350 -7.690994 13.096833 0.000000 0.000000 0.000000 90.000000 0.000000 0.000000 0.000000 0.000000 0.000000 0.000000 0.000000 0.000000 0.000000 0.000000 0.000000 0.000000 0.000000 0.000000 0.000000 0.000000 0.000000 0.000000 0.000000 0.000000 -90.000000 0.000000 0.000000 0.000000 0.000000 0.000000 0.000000 0.000000 0.000000 0.000000 0.000000 0.000000 0.000000 0.000000 0.000000 0.000000 0.000000 0.000000
9.947810 14.646473 3.545002 -188.476230 88.341918 -193.105713 0.000000 0.000000 0.000000 -7.418021 1.710428 -21.597026 8.841475 16.704648 55.540160 0.691118 13.119180 16.296766 1.069273 -6.573516 -18.457927 0.000000 0.000000 0.000000 11.022356 -4.493106 -19.489505 -8.282922 -16.323455 53.575523 -0.020636 9.889824 14.423016 -0.826899 5.797576 -16.199129 -0.036141 -0.537172 0.303778 0.253523 -0.706341 1.875943 0.271243 -0.349885 1.754131 -14.720246 -13.390471 -18.766176 10.114759 -17.182536 23.114711 3.096850 -7.700557 13.061789 0.000000 0.000000 0.000000 90.000000 0.000000 0.000000 0.000000 0.000000 0.000000 0.000000 0.000000 0.000000 0.000000 0.000000 0.000000 0.000000 0.000000 0.000000 0.000000 0.000000 0.000000 0.000000 0.000000 0.000000 -90.000000 0.000000 0.000000 0.000000 0.000000 0.000000 0.000000 0.000000 0.000000 0.000000 0.000000 0.000000 0.000000 0.000000 0.000000 0.000000 0.000000 0.000000
9.947599 14.646550 3.546158 -187.582157 88.355306 -192.238341 0.000000 0.000000 0.000000 -7.375663 1.752929 -21.569554 8.836510 16.701373 55.523010 0.686825 13.153453 16.271702 1.074051 -6.587954 -18.500211 0.000000 0.000000 0.000000 11.076126 -4.520940 -19.411316 -8.253175 -16.302341 53.469550 -0.040091 9.720530 14.501325 -0.971268 6.259809 -17.544795 -0.028820 -0.547777 0.315429 0.273901 -0.720654 1.887511 0.287886 -0.357002 1.759720 -14.777946 -13.395075 -18.692981 10.160832 -17.188882 23.050314 3.124761 -7.707145 13.033652 0.000000 0.000000 0.000000 90.000000 0.000000 0.000000 0.000000 0.000000 0.000000 0.000000 0.000000 0.000000 0.000000 0.000000 0.000000 0.000000 0.000000 0.000000 0.000000 0.000000 0.000000 0.000000 0.000000 0.000000 -90.000000 0.000000 0.000000 0.000000 0.000000 0.000000 0.000000 0.000000 0.000000 0.000000 0.000000 0.000000 0.000000 0.000000 0.000000 0.000000 0.000000 0.000000
9.947423 14.646592 3.547200 -186.747235 88.370066 -191.425082 0.000000 0.000000 0.000000 -7.335103 1.795725 -21.546776 8.831201 16.697870 55.504657 0.683800 13.174190 16.252917 1.071612 -6.580644 -18.478753 0.000000 0.000000 0.000000 11.124640 -4.538877 -19.343275 -8.227552 -16.284145 53.378240 -0.053252 9.604091 14.551991 -1.076221 6.589347 -18.506154 -0.023303 -0.558275 0.324063 0.294050 -0.734905 1.892542 0.305336 -0.364152 1.760318 -14.835899 -13.397777 -18.617559 10.201437 -17.192354 22.999583 3.151443 -7.712922 13.009616 0.000000 0.000000 0.000000 90.000000 0.000000 0.000000 0.000000 0.000000 0.000000 0.000000 0.000000 0.000000 0.000000 0.000000 0.000000 0.000000 0.000000 0.000000 0.000000 0.000000 0.000000 0.000000 0.000000 0.000000 -90.000000 0.000000 0.000000 0.000000 0.000000 0.000000 0.000000 0.000000 0.000000 0.000000 0.000000 0.000000 0.000000 0.000000 0.000000 0.000000 0.000000 0.000000
9.946851 14.646535 3.547944 -185.697621 88.386214 -190.374322 0.000000 0.000000 0.000000 -7.286659 1.823497 -21.550326 8.827479 16.695408 55.491658 0.683800 13.148766 16.244099 1.052315 -6.522809 -18.309143 0.000000 0.000000 0.000000 11.153271 -4.504405 -19.353525 -8.235397 -16.289699 53.406127 -0.026797 9.816533 14.420689 -0.913081 6.071468 -16.997355 -0.009159 -0.568525 0.318566 0.310828 -0.749106 1.876451 0.314556 -0.371253 1.747034 -14.873177 -13.396117 -18.559095 10.209911 -17.189778 23.007657 3.163697 -7.716072 13.006009 0.000000 0.000000 0.000000 90.000000 0.000000 0.000000 0.000000 0.000000 0.000000 0.000000 0.000000 0.000000 0.000000 0.000000 0.000000 0.000000 0.000000 0.000000 0.000000 0.000000 0.000000 0.000000 0.000000 0.000000 -90.000000 0.000000 0.000000 0.000000 0.000000 0.000000 0.000000 0.000000 0.000000 0.000000 0.000000 0.000000 0.000000 0.000000 0.000000 0.000000 0.000000 0.000000
9.946034 14.646456 3.548911 -184.214591 88.392370 -188.886594 0.000000 0.000000 0.000000 -7.223539 1.836259 -21.560538 8.825711 16.694233 55.485432 0.682734 13.125873 16.226754 1.043586 -6.496681 -18.232477 0.000000 0.000000 0.000000 11.191782 -4.482567 -19.394438 -8.254122 -16.302981 53.472781 -0.002407 10.016697 14.306750 -0.760755 5.556787 -15.507073 0.014332 -0.581261 0.311292 0.329648 -0.766615 1.865801 0.320489 -0.379841 1.740232 -14.892647 -13.396721 -18.532981 10.201511 -17.186690 23.017662 3.165360 -7.718289 13.005576 0.000000 0.000000 0.000000 90.000000 0.000000 0.000000 0.000000 0.000000 0.000000 0.000000 0.000000 0.000000 0.000000 0.000000 0.000000 0.000000 0.000000 0.000000 0.000000 0.000000 0.000000 0.000000 0.000000 0.000000 -90.000000 0.000000 0.000000 0.000000 0.000000 0.000000 0.000000 0.000000 0.000000 0.000000 0.000000 0.000000 0.000000 0.000000 0.000000 0.000000 0.000000 0.000000
